<?xml version="1.0" encoding="UTF-8" standalone="no"?>
<!DOCTYPE svg PUBLIC "-//W3C//DTD SVG 20010904//EN" "http://www.w3.org/TR/2001/REC-SVG-20010904/DTD/svg10.dtd">
<svg version="1.0" xmlns="http://www.w3.org/2000/svg" width="170.000000pt" height="168.000000pt" viewBox="0 0 170.000000 168.000000" preserveAspectRatio="xMidYMid meet">

<g transform="translate(0.000000,168.000000) scale(0.100000,-0.100000)" stroke="none" fill="#fff">
<path d="M976 1655 c-80 -28 -145 -119 -146 -203 0 -53 20 -93 77 -155 47 -50 53 -81 20 -101 -14 -9 -26 -6 -57 11 l-40 21 0 -29 c0 -62 71 -90 124 -48 l26 21 -9 -26 c-41 -107 -141 -255 -223 -331 -154 -142 -350 -174 -533 -85 -80 39 -142 131 -152 225 -10 91 29 164 111 208 63 34 203 31 310 -7 87 -30 195 -79 267 -122 l45 -27 37 25 36 24 -78 48 c-299 181 -577 192 -721 29 -99 -113 -90 -295 20 -402 47 -45 144 -97 199 -107 64 -10 64 -10 27 -64 -41 -60 -52 -100 -50 -195 5 -227 194 -379 449 -362 144 10 278 72 394 182 111 106 188 231 237 388 l18 58 75 -3 76 -3 -3 -33 c-3 -30 -1 -33 19 -30 18 2 26 15 41 63 10 33 18 66 18 73 0 9 -27 12 -101 12 -91 0 -100 2 -95 18 52 170 59 188 97 224 38 37 96 57 119 43 7 -4 10 -22 8 -41 -3 -30 -1 -34 18 -34 19 0 25 9 37 53 32 113 32 107 -13 107 -52 0 -97 -19 -176 -75 -84 -60 -127 -119 -159 -216 l-27 -79 -193 0 -193 0 -6 -24 c-3 -13 -9 -31 -12 -40 -5 -12 0 -16 23 -16 47 0 121 -26 160 -55 40 -31 63 -78 63 -129 0 -71 -6 -70 -103 17 -135 121 -215 173 -326 207 l-53 17 34 21 c52 32 187 177 241 259 115 174 183 335 232 552 37 162 41 151 -62 151 -49 -1 -105 -7 -127 -15z m114 -65 c0 -19 -59 -292 -64 -298 -4 -3 -6 0 -6 6 0 6 -25 39 -55 73 -64 72 -81 116 -61 164 21 49 51 65 123 65 35 0 63 -4 63 -10z m-428 -984 c97 -34 226 -124 348 -242 l105 -103 -50 -51 c-90 -92 -204 -140 -332 -140 -227 0 -394 124 -410 307 -8 84 11 140 62 189 67 65 166 79 277 40z m618 15 c0 -37 -109 -301 -124 -301 -2 0 4 23 15 50 37 97 14 187 -60 237 l-34 23 102 0 c55 0 101 -4 101 -9z"/>
</g>
</svg>