<?xml version="1.0" encoding="UTF-8"?> <svg xmlns="http://www.w3.org/2000/svg" viewBox="0 0 83.36 19.92"> <defs> <style>.cls-1{fill:#7e7e7e;fill-rule:evenodd;}</style> </defs> <title>adobe-logo</title> <g id="Capa_2" data-name="Capa 2"> <g id="Capa_1-2" data-name="Capa 1"> <path class="cls-1" d="M32.46,14.4l-1.14,5.29H28.7L33,.51h3.1L40.2,19.69H37.55L36.44,14.4Zm3.67-2.13-.88-4.59c-.26-1.31-.51-3-.71-4.38h-.12c-.2,1.39-.48,3.16-.74,4.38l-.91,4.59ZM50.2,0V16.14c0,1.05,0,2.59.11,3.55H48L47.83,18h-.08a3.29,3.29,0,0,1-2.9,1.9c-2.57,0-4.13-2.79-4.13-7.08,0-4.9,2.08-7.2,4.27-7.2A2.55,2.55,0,0,1,47.46,7.2h.06V0ZM47.52,11.13a8.53,8.53,0,0,0,0-.86c-.14-1.25-.85-2.33-1.82-2.33-1.68,0-2.25,2.33-2.25,4.89,0,2.85.74,4.84,2.16,4.84.6,0,1.4-.31,1.85-2a3.84,3.84,0,0,0,.09-.88Zm9,8.79c-2.76,0-4.76-2.36-4.76-7.11,0-5,2.37-7.17,4.9-7.17,2.73,0,4.69,2.44,4.69,7.11,0,5.49-2.7,7.17-4.8,7.17Zm.08-2.1c1.65,0,2-2.93,2-5s-.37-5-2.07-5-2.11,3-2.11,5c0,2.3.4,5,2.13,5ZM63,0h2.67V7.43h.06a3.15,3.15,0,0,1,2.9-1.79c2.36,0,3.84,2.67,3.84,6.91,0,4.95-2,7.37-4.29,7.37a2.9,2.9,0,0,1-2.74-2h-.11l-.14,1.73H62.9c.06-.94.12-2.5.12-3.55Zm2.67,14.8a2.42,2.42,0,0,0,.12.85c.42,1.68,1.25,2,1.79,2,1.59,0,2.19-2.1,2.19-5,0-2.65-.63-4.78-2.22-4.78-.88,0-1.59,1-1.79,2.05a4.91,4.91,0,0,0-.09.94V14.8Zm10.75-1.48c0,3.56,1.57,4.44,3.19,4.44A5.69,5.69,0,0,0,82,17.25l.4,1.93a7.64,7.64,0,0,1-3.3.66c-3.48,0-5.3-2.62-5.3-6.89,0-4.53,2.08-7.31,5-7.31S83,8.4,83,11.87c0,.68,0,1.11-.06,1.48Zm4-1.91c0-2.44-.82-3.75-1.87-3.75-1.4,0-2,2-2.11,3.75Z"></path> <path class="cls-1" d="M13.63.56h8V19.69ZM8,.56H0V19.69Zm2.81,7.05L15.9,19.69H12.57L11,15.85H7.32Z"></path> <path class="cls-1" d="M82.76,5.6a.59.59,0,0,1,.6.61h0a.6.6,0,0,1-.6.61.61.61,0,0,1-.61-.61.61.61,0,0,1,.61-.62Zm0,.09a.52.52,0,0,0-.5.53.51.51,0,0,0,.5.52.5.5,0,0,0,.49-.52.51.51,0,0,0-.49-.53Zm-.12.88h-.11V5.89l.2,0a.36.36,0,0,1,.21,0,.17.17,0,0,1,.06.14.17.17,0,0,1-.13.17h0c.06,0,.1.06.11.16a.57.57,0,0,0,0,.17h-.12a.58.58,0,0,1,0-.17.13.13,0,0,0-.15-.12h-.08Zm0-.38h.08c.09,0,.17,0,.17-.11s0-.12-.17-.12h-.08ZM22.67.56a.61.61,0,0,1,.61.61h0a.61.61,0,1,1-1.22,0,.62.62,0,0,1,.61-.62Zm0,.1a.5.5,0,0,0-.49.52.49.49,0,1,0,1,0,.5.5,0,0,0-.49-.52Zm-.12.88h-.11V.85l.2,0a.35.35,0,0,1,.21.06.16.16,0,0,1,.06.14.18.18,0,0,1-.13.17h0c.06,0,.1.07.12.17a.5.5,0,0,0,0,.17h-.12a.69.69,0,0,1,0-.18.13.13,0,0,0-.15-.12h-.08Zm0-.38h.08c.09,0,.17,0,.17-.12s0-.12-.17-.12h-.08Z"></path> </g> </g> </svg> 