<?xml version="1.0" encoding="UTF-8"?> <svg xmlns="http://www.w3.org/2000/svg" viewBox="0 0 96.67 24.48"> <defs> <style>.cls-1{fill:#7e7e7e;}</style> </defs> <title>bootstrap-logo</title> <g id="Capa_2" data-name="Capa 2"> <g id="Capa_1-2" data-name="Capa 1"> <path class="cls-1" d="M13.57,13.09H9.15v4.47h4.42A2.51,2.51,0,0,0,15.34,17,2.21,2.21,0,0,0,16,15.29a2.11,2.11,0,0,0-.63-1.63,2.56,2.56,0,0,0-1.77-.57"></path> <path class="cls-1" d="M14.73,10.79a1.84,1.84,0,0,0,.6-1.47,1.86,1.86,0,0,0-.54-1.52,2.38,2.38,0,0,0-1.56-.44H9.15V11.3h4.08a2.24,2.24,0,0,0,1.5-.51"></path> <path class="cls-1" d="M20.4,0H4.08A4.1,4.1,0,0,0,0,4.08V20.4a4.1,4.1,0,0,0,4.08,4.08H20.4a4.1,4.1,0,0,0,4.08-4.08V4.08A4.1,4.1,0,0,0,20.4,0M18.17,17.19a3.26,3.26,0,0,1-.94,1.26,4.86,4.86,0,0,1-1.64.84,8.33,8.33,0,0,1-2.38.31H6.65V5.32h6.94a4.94,4.94,0,0,1,3.08.88,3.14,3.14,0,0,1,1.16,2.66,3.22,3.22,0,0,1-.53,1.85,3.37,3.37,0,0,1-1.51,1.19v0a3.11,3.11,0,0,1,2,1.25,4.13,4.13,0,0,1,.68,2.43,4.1,4.1,0,0,1-.3,1.57"></path> <path class="cls-1" d="M29.82,17.64V6.16h4.31a5.18,5.18,0,0,1,2.11.35,2.77,2.77,0,0,1,1.25,1.07,2.92,2.92,0,0,1,.45,1.52,2.56,2.56,0,0,1-.41,1.38,2.83,2.83,0,0,1-1.2,1,3,3,0,0,1,1.6,1,2.81,2.81,0,0,1,.56,1.74,3.3,3.3,0,0,1-.34,1.5,3,3,0,0,1-.84,1.07,3.66,3.66,0,0,1-1.26.57,7.52,7.52,0,0,1-1.85.19ZM31.34,11h2.48a5.48,5.48,0,0,0,1.45-.13,1.7,1.7,0,0,0,.88-.57,1.7,1.7,0,0,0,.29-1,1.85,1.85,0,0,0-.27-1,1.45,1.45,0,0,0-.79-.6,6.83,6.83,0,0,0-1.74-.16h-2.3Zm0,5.31H34.2a6,6,0,0,0,1-.06,2.6,2.6,0,0,0,.88-.31,1.64,1.64,0,0,0,.58-.64,2,2,0,0,0,.23-1,1.87,1.87,0,0,0-.33-1.11,1.72,1.72,0,0,0-.91-.67A5.61,5.61,0,0,0,34,12.34H31.34Z"></path> <path class="cls-1" d="M39.88,13.48a4.3,4.3,0,0,1,1.28-3.42,3.87,3.87,0,0,1,2.62-.93,3.72,3.72,0,0,1,2.8,1.13,4.25,4.25,0,0,1,1.09,3.1,5.53,5.53,0,0,1-.48,2.53,3.44,3.44,0,0,1-1.4,1.43,4.06,4.06,0,0,1-2,.51A3.71,3.71,0,0,1,41,16.71a4.47,4.47,0,0,1-1.08-3.23m1.45,0A3.55,3.55,0,0,0,42,15.87a2.33,2.33,0,0,0,3.51,0,3.64,3.64,0,0,0,.69-2.44,3.46,3.46,0,0,0-.7-2.34,2.33,2.33,0,0,0-3.5,0,3.57,3.57,0,0,0-.69,2.39"></path> <path class="cls-1" d="M48.8,13.48a4.3,4.3,0,0,1,1.28-3.42,3.87,3.87,0,0,1,2.62-.93,3.71,3.71,0,0,1,2.8,1.13,4.25,4.25,0,0,1,1.09,3.1,5.53,5.53,0,0,1-.48,2.53,3.44,3.44,0,0,1-1.4,1.43,4.06,4.06,0,0,1-2,.51,3.73,3.73,0,0,1-2.82-1.12,4.47,4.47,0,0,1-1.08-3.23m1.45,0a3.5,3.5,0,0,0,.7,2.39,2.31,2.31,0,0,0,3.5,0,3.64,3.64,0,0,0,.69-2.44,3.46,3.46,0,0,0-.7-2.34,2.32,2.32,0,0,0-3.49,0,3.52,3.52,0,0,0-.7,2.39"></path> <path class="cls-1" d="M61.33,16.38l.2,1.24a4.86,4.86,0,0,1-1.07.13,2.46,2.46,0,0,1-1.19-.24,1.34,1.34,0,0,1-.59-.64,4.94,4.94,0,0,1-.17-1.67V10.42h-1V9.32h1V7.26l1.4-.84v2.9h1.42v1.1H59.91v4.86a2.52,2.52,0,0,0,.07.78.54.54,0,0,0,.25.27.9.9,0,0,0,.48.1,4.09,4.09,0,0,0,.62-.05"></path> <path class="cls-1" d="M62.14,15.16l1.4-.22a1.87,1.87,0,0,0,.65,1.28,2.26,2.26,0,0,0,1.5.45,2.15,2.15,0,0,0,1.44-.4,1.18,1.18,0,0,0,.47-.92.87.87,0,0,0-.42-.76,6.23,6.23,0,0,0-1.44-.47,14.29,14.29,0,0,1-2.15-.68,2.15,2.15,0,0,1-1-2.94,2.28,2.28,0,0,1,.69-.79,2.91,2.91,0,0,1,.9-.41,4.33,4.33,0,0,1,1.22-.17,4.81,4.81,0,0,1,1.72.29,2.32,2.32,0,0,1,1.09.76,2.93,2.93,0,0,1,.49,1.29l-1.38.19a1.56,1.56,0,0,0-.55-1,2,2,0,0,0-1.27-.36,2.35,2.35,0,0,0-1.39.32,1,1,0,0,0-.41.76.81.81,0,0,0,.17.49,1.27,1.27,0,0,0,.54.38l1.25.36a16.3,16.3,0,0,1,2.08.65,2.09,2.09,0,0,1,.93.74,2.05,2.05,0,0,1,.34,1.21,2.36,2.36,0,0,1-.41,1.32,2.68,2.68,0,0,1-1.19,1,4.27,4.27,0,0,1-1.75.34,3.89,3.89,0,0,1-2.47-.68,3.1,3.1,0,0,1-1.09-2"></path> <path class="cls-1" d="M73.8,16.38,74,17.62a4.92,4.92,0,0,1-1.07.13,2.43,2.43,0,0,1-1.19-.24,1.34,1.34,0,0,1-.59-.64A4.85,4.85,0,0,1,71,15.2V10.42H70V9.32h1V7.26l1.41-.84v2.9H73.8v1.1H72.39v4.86a2.52,2.52,0,0,0,.07.78.57.57,0,0,0,.24.27,1,1,0,0,0,.49.1,3.88,3.88,0,0,0,.61-.05"></path> <path class="cls-1" d="M75.17,17.64V9.32h1.27v1.26a3.32,3.32,0,0,1,.89-1.16,1.59,1.59,0,0,1,.91-.29,2.8,2.8,0,0,1,1.45.46L79.2,10.9a2,2,0,0,0-1-.31,1.3,1.3,0,0,0-.83.28,1.53,1.53,0,0,0-.53.77,5.4,5.4,0,0,0-.23,1.65v4.35Z"></path> <path class="cls-1" d="M86,16.61a5,5,0,0,1-1.51.94,4.18,4.18,0,0,1-1.55.28,3,3,0,0,1-2.11-.67,2.22,2.22,0,0,1-.73-1.71,2.35,2.35,0,0,1,1-1.93,3.39,3.39,0,0,1,1-.46,9,9,0,0,1,1.25-.21,13.08,13.08,0,0,0,2.52-.49V12a1.53,1.53,0,0,0-.4-1.21,2.34,2.34,0,0,0-1.6-.48,2.53,2.53,0,0,0-1.47.35,2.08,2.08,0,0,0-.7,1.23l-1.38-.18a3.43,3.43,0,0,1,.62-1.43,2.63,2.63,0,0,1,1.24-.84A5.51,5.51,0,0,1,84,9.13a5.15,5.15,0,0,1,1.73.25,2.23,2.23,0,0,1,1,.64,2.15,2.15,0,0,1,.44,1,7.81,7.81,0,0,1,.07,1.31v1.87a20,20,0,0,0,.09,2.49,3.08,3.08,0,0,0,.36,1H86.24a3,3,0,0,1-.29-1m-.11-3.14a11.26,11.26,0,0,1-2.31.53,5.39,5.39,0,0,0-1.23.28,1.25,1.25,0,0,0-.55.46A1.23,1.23,0,0,0,82,16.35a1.83,1.83,0,0,0,1.25.38,2.91,2.91,0,0,0,1.45-.36,2.2,2.2,0,0,0,.93-1A3.43,3.43,0,0,0,85.84,14Z"></path> <path class="cls-1" d="M89.45,20.83V9.32h1.28V10.4a3.17,3.17,0,0,1,1-1,2.82,2.82,0,0,1,1.38-.32A3.32,3.32,0,0,1,95,9.68a3.29,3.29,0,0,1,1.23,1.55,5.55,5.55,0,0,1,.42,2.19,5.49,5.49,0,0,1-.46,2.3A3.5,3.5,0,0,1,93,17.83a2.61,2.61,0,0,1-1.26-.3,2.86,2.86,0,0,1-.92-.75v4Zm1.27-7.3a3.63,3.63,0,0,0,.65,2.37,2,2,0,0,0,1.58.77,2,2,0,0,0,1.61-.8,3.8,3.8,0,0,0,.67-2.46A3.65,3.65,0,0,0,94.57,11,1.94,1.94,0,0,0,93,10.24a2,2,0,0,0-1.59.84,3.73,3.73,0,0,0-.7,2.45"></path> </g> </g> </svg> 