<?xml version="1.0" encoding="UTF-8"?> <svg xmlns="http://www.w3.org/2000/svg" viewBox="0 0 68.15 43.58"> <defs> <style>.cls-1{fill:#7e7e7e;}</style> </defs> <title>css3-html5</title> <g id="Capa_2" data-name="Capa 2"> <g id="Capa_1-2" data-name="Capa 1"> <polygon class="cls-1" points="10.95 2.01 10.95 0 6.16 0 6.16 5.88 10.95 5.88 10.95 3.87 8.17 3.87 8.17 2.01 10.95 2.01"></polygon> <polygon class="cls-1" points="17.75 0 12.96 0 12.96 2.06 14.96 3.87 12.96 3.87 12.96 5.88 17.75 5.88 17.75 3.92 15.94 2.01 17.75 2.01 17.75 0"></polygon> <polygon class="cls-1" points="24.71 0 19.92 0 19.92 2.06 21.84 3.87 19.92 3.87 19.92 5.88 24.71 5.88 24.71 3.92 22.82 2.01 24.71 2.01 24.71 0"></polygon> <path class="cls-1" d="M0,8.56,2.81,40.08l12.61,3.5,12.64-3.51L30.87,8.56ZM24.76,18.63l-9.3,4.14H24.4l-1,11.92-7.91,2.2h0L7.5,34.7,7,28.63h3.88l.28,3.08,4.31,1.16h0l4.29-1.2.43-5.05H6.77l-.34-3.85,9-3.87.62-.27h-10l-.35-3.86H25.09Z"></path> <polygon class="cls-1" points="40.15 0 42.11 0 42.11 1.94 43.91 1.94 43.91 0 45.87 0 45.87 5.88 43.91 5.88 43.91 3.91 42.11 3.91 42.11 5.88 40.15 5.88 40.15 0"></polygon> <polygon class="cls-1" points="48.45 1.95 46.73 1.95 46.73 0 52.15 0 52.15 1.95 50.42 1.95 50.42 5.88 48.46 5.88 48.46 1.95 48.45 1.95"></polygon> <polygon class="cls-1" points="53.01 0 55.06 0 56.32 2.06 57.58 0 59.63 0 59.63 5.88 57.67 5.88 57.67 2.96 56.32 5.05 56.28 5.05 54.93 2.96 54.93 5.88 53.01 5.88 53.01 0"></polygon> <polygon class="cls-1" points="60.6 0 62.57 0 62.57 3.93 65.33 3.93 65.33 5.88 60.6 5.88 60.6 0"></polygon> <path class="cls-1" d="M37.27,8.56l2.81,31.52,12.61,3.5,12.65-3.51L68.15,8.56Zm25,7.48-.18,2-.08.87H47.24l.36,4H61.68l-.09,1L60.68,34l-.06.65-7.91,2.2h0l-7.91-2.2-.54-6.06h3.87l.28,3.08,4.31,1.16h0L57,31.71l.45-5H44.06L43.11,16,43,15H62.38Z"></path> <polygon class="cls-1" points="34.27 20.44 34.27 22.29 36.04 22.29 36.04 23.24 34.27 23.24 34.27 25.11 33.28 25.11 33.28 23.24 31.51 23.24 31.51 22.29 33.28 22.29 33.28 20.44 34.27 20.44"></polygon> </g> </g> </svg> 