<?xml version="1.0" encoding="UTF-8"?> <svg xmlns="http://www.w3.org/2000/svg" viewBox="0 0 60 30.15"> <defs> <style>.cls-1{fill:#7e7e7e;}</style> </defs> <title>php-logo</title> <g id="Capa_2" data-name="Capa 2"> <g id="Capa_1-2" data-name="Capa 1"> <path class="cls-1" d="M4.75,6.34h8.9c2.61,0,4.5.78,5.67,2.26s1.56,3.51,1.17,6.07a11.84,11.84,0,0,1-1,3.46,10.25,10.25,0,0,1-2.13,3.05,7.43,7.43,0,0,1-3.55,2.19,16.37,16.37,0,0,1-3.92.47h-4L4.61,30.15H0L4.75,6.34m3.88,3.79-2,10a2.6,2.6,0,0,0,.4,0H7.5a17.66,17.66,0,0,0,5.32-.63c1.41-.47,2.36-2.08,2.85-4.85q.6-3.48-1.19-4a14.85,14.85,0,0,0-4.42-.49l-.76,0H8.6l0,0"></path> <path class="cls-1" d="M25.74,0h4.58L29,6.34h4.11a8.35,8.35,0,0,1,5,1.39q1.7,1.33,1,5L37,23.84H32.31l2.13-10.56a3,3,0,0,0-.2-2.36,2.83,2.83,0,0,0-2.29-.7l-3.69,0L25.54,23.84H21L25.74,0"></path> <path class="cls-1" d="M44.11,6.34H53c2.62,0,4.51.78,5.68,2.26s1.56,3.51,1.16,6.07a11.27,11.27,0,0,1-1,3.46,10.21,10.21,0,0,1-2.12,3.05,7.43,7.43,0,0,1-3.55,2.19,16.37,16.37,0,0,1-3.92.47h-4L44,30.15H39.36L44.11,6.34M48,10.13l-2,10a2.6,2.6,0,0,0,.4,0h.46a17.66,17.66,0,0,0,5.32-.63c1.41-.47,2.36-2.08,2.85-4.85q.6-3.48-1.2-4a14.74,14.74,0,0,0-4.41-.49l-.76,0H48l0,0"></path> </g> </g> </svg> 