<?xml version="1.0" encoding="UTF-8"?> <svg xmlns="http://www.w3.org/2000/svg" viewBox="0 0 85.7 24.48"> <defs> <style>.cls-1{fill:#7e7e7e;}</style> </defs> <title>shopify-logo</title> <g id="Capa_2" data-name="Capa 2"> <g id="Capa_1-2" data-name="Capa 1"> <path class="cls-1" d="M29.62,13.61c-.73-.4-1.11-.73-1.11-1.19s.52-1,1.34-1a4.7,4.7,0,0,1,1.8.4l.68-2a4.28,4.28,0,0,0-2.44-.48c-2.54,0-4.3,1.46-4.3,3.49a3.22,3.22,0,0,0,1.92,2.67c.88.5,1.19.87,1.19,1.38s-.44,1-1.27,1a5.65,5.65,0,0,1-2.38-.63l-.71,2.05A5.56,5.56,0,0,0,27.2,20c2.61,0,4.47-1.28,4.47-3.59,0-1.26-.92-2.15-2.05-2.8"></path> <path class="cls-1" d="M40,9.29A3.94,3.94,0,0,0,37,10.83l0,0L38,5h-2.9L32.31,19.81h2.9l1-5.07c.38-1.92,1.36-3.09,2.28-3.09.65,0,.9.44.9,1.08A5.56,5.56,0,0,1,39.22,14l-1.1,5.82H41l1.14-6a10.4,10.4,0,0,0,.21-1.9c0-1.67-.85-2.65-2.35-2.65"></path> <path class="cls-1" d="M49,9.29c-3.49,0-5.82,3.15-5.82,6.66a3.8,3.8,0,0,0,4,4.07c3.43,0,5.74-3.07,5.74-6.66A3.75,3.75,0,0,0,49,9.29m-1.42,8.49c-1,0-1.4-.85-1.4-1.9,0-1.67.86-4.38,2.44-4.38,1,0,1.36.88,1.36,1.75,0,1.8-.86,4.53-2.4,4.53"></path> <path class="cls-1" d="M60.31,9.29A4,4,0,0,0,57.24,11h0l.17-1.56H54.81c-.14,1.06-.37,2.65-.6,3.86L52.2,24h2.9l.8-4.3H56a3.36,3.36,0,0,0,1.71.38c3.41,0,5.64-3.49,5.64-7,0-2-.86-3.72-3-3.72m-2.76,8.54a1.82,1.82,0,0,1-1.19-.42l.48-2.71c.35-1.8,1.29-3,2.28-3s1.16.83,1.16,1.59c0,1.87-1.12,4.55-2.73,4.55"></path> <path class="cls-1" d="M67.46,5.11A1.66,1.66,0,0,0,65.79,6.8a1.33,1.33,0,0,0,1.36,1.45h0A1.65,1.65,0,0,0,68.9,6.57a1.36,1.36,0,0,0-1.44-1.46"></path> <polygon class="cls-1" points="63.39 19.81 66.31 19.81 68.28 9.52 65.34 9.52 63.39 19.81"></polygon> <path class="cls-1" d="M75.65,9.48h-2L73.73,9c.18-1,.75-1.88,1.73-1.88a2.73,2.73,0,0,1,.92.16L77,5a3.81,3.81,0,0,0-1.57-.25,4.31,4.31,0,0,0-2.84,1A5.45,5.45,0,0,0,70.86,9l-.08.48H69.43L69,11.67h1.35l-1.54,8.12h2.9l1.54-8.12h2Z"></path> <path class="cls-1" d="M82.64,9.52S80.82,14.09,80,16.59h0c0-.81-.71-7.07-.71-7.07H76.21L78,19a.63.63,0,0,1-.06.48,5.08,5.08,0,0,1-1.57,1.74,6,6,0,0,1-1.64.83l.81,2.46a6.88,6.88,0,0,0,2.84-1.58,19.15,19.15,0,0,0,3.8-5.76L85.7,9.52Z"></path> <path class="cls-1" d="M13.82,23.86,21,22.31S18.41,4.78,18.39,4.66a.23.23,0,0,0-.21-.19l-1.92-.13S15,3.07,14.84,2.94a.42.42,0,0,0-.12-.08Z"></path> <path class="cls-1" d="M14.42,2.82l-.08,0-.71.21C13.21,1.82,12.46.69,11.13.69H11A1.64,1.64,0,0,0,9.77,0c-3.09,0-4.57,3.86-5,5.82-1.19.36-2.05.63-2.15.67-.67.21-.69.23-.77.86-.07.46-1.82,14-1.82,14l13.5,2.53Zm-3.52.94V3.9l-2.38.73a4.13,4.13,0,0,1,2.08-3,5.93,5.93,0,0,1,.3,2.09M9.67.82a.68.68,0,0,1,.41.14c-1,.46-2.06,1.63-2.5,4-.65.22-1.28.41-1.88.58C6.22,3.72,7.47.82,9.67.82m.54,10.43a4.22,4.22,0,0,0-1.76-.42C7,10.83,7,11.73,7,12c0,1.23,3.22,1.71,3.22,4.61,0,2.28-1.44,3.74-3.39,3.74a4.71,4.71,0,0,1-3.54-1.46l.64-2.07a4.49,4.49,0,0,0,2.26,1,.92.92,0,0,0,1-.92c0-1.61-2.65-1.69-2.65-4.34,0-2.22,1.6-4.39,4.84-4.39a3.92,3.92,0,0,1,1.86.36Zm1.23-9.72c.69.08,1.13.87,1.42,1.75-.34.12-.73.23-1.15.37V3.4a5.87,5.87,0,0,0-.27-1.87"></path> </g> </g> </svg> 