<?xml version="1.0" encoding="UTF-8"?> <svg xmlns="http://www.w3.org/2000/svg" viewBox="0 0 120.02 24.48"> <defs> <style>.cls-1{fill:#7e7e7e;}</style> </defs> <title>wordpress-logo</title> <g id="Capa_2" data-name="Capa 2"> <g id="Capa_1-2" data-name="Capa 1"> <path class="cls-1" d="M68.23,9.08H63.36V9.6c1.53,0,1.77.33,1.77,2.26v3.48c0,1.93-.24,2.28-1.77,2.28a5,5,0,0,1-3-2l-1.25-1.36c1.68-.3,2.58-1.36,2.58-2.56,0-1.5-1.28-2.64-3.67-2.64H53.19V9.6c1.53,0,1.77.33,1.77,2.26v3.48c0,1.93-.24,2.28-1.77,2.28v.52H58.6v-.52c-1.52,0-1.76-.35-1.76-2.28v-1h.46l3,3.78h7.91c3.89,0,5.58-2.07,5.58-4.54s-1.69-4.52-5.58-4.52M56.84,13.52V9.9H58a1.66,1.66,0,0,1,1.77,1.82A1.66,1.66,0,0,1,58,13.52Zm11.47,3.77h-.19c-1,0-1.11-.24-1.11-1.49V9.9h1.3c2.83,0,3.35,2.07,3.35,3.67s-.52,3.72-3.35,3.72"></path> <path class="cls-1" d="M38.05,14.52,39.92,9c.55-1.6.3-2.06-1.44-2.06V6.36h5.11v.55c-1.71,0-2.12.41-2.8,2.39l-3.1,9.3h-.35l-2.78-8.51L31.74,18.6h-.36l-3-9.3c-.66-2-1.09-2.39-2.67-2.39V6.36h6v.55c-1.61,0-2,.38-1.47,2.06l1.82,5.55,2.75-8.16h.51Z"></path> <path class="cls-1" d="M47.29,18.49a5.2,5.2,0,0,1-5.44-4.89c0-2.67,2.45-4.87,5.44-4.87s5.44,2.2,5.44,4.87a5.2,5.2,0,0,1-5.44,4.89m0-8.92c-2.5,0-3.37,2.26-3.37,4s.87,4,3.37,4,3.4-2.23,3.4-4-.87-4-3.4-4"></path> <path class="cls-1" d="M80.52,17.59v.55H74.29v-.55c1.83,0,2.15-.46,2.15-3.18V10.06c0-2.72-.32-3.15-2.15-3.15V6.36h5.63c2.8,0,4.36,1.45,4.36,3.38s-1.56,3.34-4.36,3.34H78.37v1.33c0,2.72.33,3.18,2.15,3.18m-.6-10.25H78.37v4.73h1.55a2.12,2.12,0,0,0,2.23-2.33,2.15,2.15,0,0,0-2.23-2.4"></path> <path class="cls-1" d="M103,15.58l-.14.49c-.24.9-.54,1.22-2.47,1.22H100c-1.42,0-1.66-.32-1.66-2.25V13.79c2.12,0,2.28.19,2.28,1.6h.52V11.34h-.52c0,1.41-.16,1.61-2.28,1.61v-3H99.8c1.93,0,2.23.32,2.48,1.22l.13.52h.44l-.19-2.56h-8V9.6c1.53,0,1.77.33,1.77,2.26v3.48c0,1.76-.21,2.21-1.41,2.27a5,5,0,0,1-3-2l-1.25-1.36c1.68-.3,2.58-1.36,2.58-2.56,0-1.5-1.28-2.64-3.67-2.64H84.9V9.6c1.52,0,1.77.33,1.77,2.26v3.48c0,1.93-.25,2.28-1.77,2.28v.52h5.41v-.52c-1.52,0-1.76-.35-1.76-2.28v-1H89l3,3.78H103.2l.17-2.56ZM88.55,13.52V9.9h1.11a1.67,1.67,0,0,1,1.77,1.82,1.67,1.67,0,0,1-1.77,1.8Z"></path> <path class="cls-1" d="M108.48,18.49a4.05,4.05,0,0,1-2.45-.92,1.92,1.92,0,0,0-.43.92h-.52V14.74h.54a3,3,0,0,0,3.08,2.86,1.39,1.39,0,0,0,1.57-1.31c0-.71-.62-1.25-1.74-1.77L107,13.79a3,3,0,0,1-1.9-2.61A2.66,2.66,0,0,1,108,8.76a3.34,3.34,0,0,1,2.12.71,1.5,1.5,0,0,0,.35-.74H111v3.21h-.57c-.19-1.28-.9-2.34-2.34-2.34-.76,0-1.47.44-1.47,1.12s.57,1.08,1.88,1.68l1.49.74a2.83,2.83,0,0,1,1.83,2.44,3.07,3.07,0,0,1-3.32,2.91"></path> <path class="cls-1" d="M116.7,18.49a4.05,4.05,0,0,1-2.45-.92,1.92,1.92,0,0,0-.43.92h-.52V14.74h.55a3,3,0,0,0,3.07,2.86,1.4,1.4,0,0,0,1.58-1.31c0-.71-.63-1.25-1.74-1.77l-1.55-.73a3,3,0,0,1-1.91-2.61,2.67,2.67,0,0,1,2.91-2.42,3.34,3.34,0,0,1,2.12.71,1.5,1.5,0,0,0,.36-.74h.51v3.21h-.57c-.19-1.28-.9-2.34-2.34-2.34-.76,0-1.47.44-1.47,1.12s.58,1.08,1.88,1.68l1.5.74A2.84,2.84,0,0,1,120,15.58a3.07,3.07,0,0,1-3.32,2.91"></path> <path class="cls-1" d="M12.24.73a11.52,11.52,0,0,1,9.54,5.08,11.85,11.85,0,0,1,1.06,2,11.6,11.6,0,0,1,0,9,12.27,12.27,0,0,1-1.06,2,11.89,11.89,0,0,1-3.11,3.11,12.27,12.27,0,0,1-2,1.06,11.6,11.6,0,0,1-9,0,11.85,11.85,0,0,1-1.95-1.06A11.55,11.55,0,0,1,4.1,20.37a11.4,11.4,0,0,1-1.4-1.7A11.48,11.48,0,0,1,1.64,7.76,11.15,11.15,0,0,1,2.7,5.81,11.14,11.14,0,0,1,5.81,2.7a11.15,11.15,0,0,1,2-1.06A11.43,11.43,0,0,1,12.24.73m0-.73A12.24,12.24,0,1,0,24.48,12.24,12.24,12.24,0,0,0,12.24,0"></path> <path class="cls-1" d="M2,12.24a10.22,10.22,0,0,0,5.75,9.18L2.92,8.09A10.25,10.25,0,0,0,2,12.24m17.08-.52a5.35,5.35,0,0,0-.84-2.81,4.83,4.83,0,0,1-1-2.39A1.76,1.76,0,0,1,19,4.71h.13A10.18,10.18,0,0,0,3.72,6.64h.65c1.07,0,2.72-.13,2.72-.13a.42.42,0,0,1,.07.84s-.56.06-1.17.1l3.71,11,2.24-6.69L10.35,7.46c-.55,0-1.07-.1-1.07-.1a.42.42,0,0,1,.06-.84S11,6.65,12,6.65s2.72-.13,2.72-.13a.42.42,0,0,1,.06.84s-.55.06-1.17.1l3.69,11,1.05-3.34a11.55,11.55,0,0,0,.74-3.36m-6.7,1.41L9.36,22a10.13,10.13,0,0,0,2.88.42,10.31,10.31,0,0,0,3.39-.58,1,1,0,0,1-.08-.14Zm8.77-5.78a8.37,8.37,0,0,1,.07,1,9.71,9.71,0,0,1-.78,3.66l-3.11,9a10.19,10.19,0,0,0,3.82-13.7"></path> </g> </g> </svg> 